<svg xmlns="http://www.w3.org/2000/svg" viewBox="0 0 24 24"><path fill="none" stroke="currentColor" stroke-width="2" stroke-linecap="round" stroke-linejoin="round" d="M12 8.2a3.8 3.8 0 1 0 0 7.6 3.8 3.8 0 0 0 0-7.6Z"/><path fill="none" stroke="currentColor" stroke-width="2" stroke-linecap="round" stroke-linejoin="round" d="M4.8 13.5v-3l2.1-.6.8-1.9-.9-1.9 2.1-2.1 1.9.9 1.9-.8.6-2.1h3l.6 2.1 1.9.8 1.9-.9 2.1 2.1-.9 1.9.8 1.9 2.1.6v3l-2.1.6-.8 1.9.9 1.9-2.1 2.1-1.9-.9-1.9.8-.6 2.1h-3l-.6-2.1-1.9-.8-1.9.9-2.1-2.1.9-1.9-.8-1.9z"/></svg>
