<svg xmlns="http://www.w3.org/2000/svg" viewBox="0 0 232 72" role="img" aria-label="TB-IA Inteligencia Territorial Tuberculose">
  <svg x="0" y="6" width="56" height="56" viewBox="0 0 64 64">
    <path fill="#27c6a2" d="M28.5 4.5c5.8 5.1 6.8 11.7 2.5 17.4-7.1-.2-11.3-5.4-10.6-13.1 2.5-1.7 5.1-3.1 8.1-4.3Z"/>
    <path fill="#48d6b8" d="M47.6 12.5c.5 7.7-3.8 12.8-10.9 12.8-4-5.9-2.7-12.4 3.3-17.2 2.8 1.2 5.2 2.6 7.6 4.4Z"/>
    <path fill="#1fb58f" d="M57.8 31.2c-5 5.9-11.5 7.1-17.4 3.1-.1-7.2 4.9-11.6 12.6-11.1 1.9 2.4 3.4 5.1 4.8 8Z"/>
    <path fill="#38d3aa" d="M43.5 53.9c-7.5-.6-12.2-5.3-12.1-12.4 6-3.9 12.5-2.4 17.1 3.8-1.4 3.1-3 5.7-5 8.6Z"/>
    <path fill="#19a985" d="M18.1 53.4c-2.1-2.7-3.8-5.5-5.1-8.4 4.9-6 11.4-7.2 17.2-3.1.1 7.1-4.8 11.6-12.1 11.5Z"/>
    <path fill="#55dfc3" d="M6.2 30.6c1.3-3 2.9-5.7 4.8-8.1 7.6-.2 12.5 4.4 12.2 11.5-6 3.8-12.5 2.5-17-3.4Z"/>
    <circle cx="32" cy="32" r="8.2" fill="#ecfffa"/>
    <path fill="#0b6f63" d="M29 25h6v14h-6z"/>
    <path fill="#0b6f63" d="M25 29h14v6H25z"/>
  </svg>
  <text x="66" y="31" fill="#ffffff" font-family="Inter, Arial, sans-serif" font-size="28" font-weight="800" letter-spacing="-.5">TB-IA</text>
  <text x="68" y="49" fill="#bfeee4" font-family="Inter, Arial, sans-serif" font-size="10" font-weight="700">Inteligencia Territorial</text>
  <text x="68" y="61" fill="#bfeee4" font-family="Inter, Arial, sans-serif" font-size="10" font-weight="700">Tuberculose</text>
</svg>
